<svg xmlns="http://www.w3.org/2000/svg" version="1.1" xmlns:xlink="http://www.w3.org/1999/xlink" width="1000" height="1000"><g clip-path="url(#SvgjsClipPath1071)"><rect width="1000" height="1000" fill="#ffffff"></rect><g transform="matrix(16.987542468856173,0,0,16.987542468856173,62.910532276330684,50)"><svg xmlns="http://www.w3.org/2000/svg" version="1.1" xmlns:xlink="http://www.w3.org/1999/xlink" width="51.46" height="52.98"><svg id="Calque_1" data-name="Calque 1" xmlns="http://www.w3.org/2000/svg" viewBox="0 0 51.46 52.98">
  <defs>
    <style>
      .cls-1 {
        fill: #feb157;
      }

      .cls-2 {
        fill: #fcb259;
      }

      .cls-3 {
        fill: #ffcf9b;
      }

      .cls-4 {
        fill: #ffb151;
      }
    </style>
  <clipPath id="SvgjsClipPath1071"><rect width="1000" height="1000" x="0" y="0" rx="400" ry="400"></rect></clipPath></defs>
  <path class="cls-4" d="M38.49,13.98c-1.09.02-1.97.91-1.97,2v14.67c0,.37.1.73.29,1.04l10.88,17.84c1.05,1.72,3.71.98,3.71-1.04l.06-33.8c-.14-1.07-.97-.91-2.09-.89l-10.88.18Z"></path>
  <path class="cls-1" d="M11.79,39.05c0-1.1.9-2,2-2h20.32c1.61,0,2.56,1.81,1.64,3.14l-8.23,11.89c-.37.54-.99.86-1.64.86h-11.3c-1.1,0-2.79-.9-2.79-2v-11.89Z"></path>
  <path class="cls-1" d="M2.06,13.55C.93,13.53.01,14.44.01,15.56l.05,22.7c.22.6.89,1.49,2,1.49h10.24c1.1,0,2-.9,2-2V15.77c0-1.09-.87-1.98-1.96-2l-10.28-.22Z"></path>
  <path class="cls-2" d="M12.47,13.98c.03,1.08.92,1.94,2,1.94h22.63c1.02,0,1.88-.77,1.99-1.79l1.26-11.78c0-.42-1.18-1.99-1.96-2.36L12.95.24c-1.13,0-.89.93-.85,2.05l.38,11.69Z"></path>
  <path class="cls-3" d="M.26,14.1s0,0,0,0L12.17.52c.55-.63,1.56-.26,1.61.59l.72,13.8c.03.55-.4,1.01-.94,1l-12.63-.22c-.79-.01-1.19-.97-.67-1.58,0,0,0,0,0,0Z"></path>
  <path class="cls-3" d="M.27,38.85s0,0,0,0l12.29,13.8c.6.67,1.67.23,1.68-.71l.08-13.77c0-.57-.43-1.03-.97-1.04l-12.35-.07c-.87,0-1.32,1.1-.73,1.77,0,0,0,0,0,0Z"></path>
  <path class="cls-3" d="M39.17.37s0,0,0,0l11.99,13.56c.65.73.16,1.93-.81,1.95l-12.7.22c-.64.01-1.16-.54-1.12-1.21l.71-13.78c.05-1.03,1.26-1.49,1.93-.73,0,0,0,0,0,0Z"></path>
</svg></svg></g></g></svg>